<svg width="192" height="63" viewBox="0 0 192 63" fill="none" xmlns="http://www.w3.org/2000/svg">
<path d="M75.206 0C77.1192 0 79.374 0.278515 81.9704 0.835544C84.5942 1.39257 86.8627 2.3256 88.7758 3.63462C90.689 4.91578 91.6456 6.55902 91.6456 8.56432C91.6456 10.319 91.1263 11.8229 90.0877 13.0763C89.0491 14.3017 87.6963 14.9145 86.0291 14.9145C85.2638 14.9145 84.4302 14.7752 83.5283 14.4967C82.6537 14.1903 81.7381 13.8561 80.7815 13.494C79.8523 13.132 78.9093 12.8534 77.9528 12.6585C77.0235 12.4357 75.9986 12.3243 74.878 12.3243C72.9922 12.3243 71.366 12.8256 69.9994 13.8282C68.6602 14.8309 67.9906 16.1817 67.9906 17.8806C67.9906 19.7188 69.5075 21.195 72.5412 22.309C75.6023 23.3952 78.9913 24.565 82.7083 25.8183C86.4527 27.0716 89.6094 29.0212 92.1785 31.6671C94.7477 34.2851 96.0322 38.1008 96.0322 43.1141C96.0322 47.0133 95.062 50.4808 93.1215 53.5166C91.181 56.5524 88.5709 58.8919 85.2911 60.5351C82.0114 62.1784 78.431 63 74.55 63C69.7671 63 65.1618 62.2898 60.7342 60.8694C56.3339 59.4211 54.1338 56.9284 54.1338 53.3913C54.1338 51.6645 54.6394 50.2301 55.6507 49.0882C56.6892 47.9184 58.0558 47.3336 59.7503 47.3336C60.5702 47.3336 61.4722 47.4728 62.4561 47.7513C63.44 48.0298 64.6972 48.4476 66.2278 49.0046C67.7583 49.5338 69.0975 49.9516 70.2454 50.258C71.3933 50.5365 72.5959 50.6757 73.8531 50.6757C75.657 50.6757 77.2012 50.3694 78.4857 49.7566C79.7703 49.116 80.7405 48.2387 81.3965 47.1247C82.0797 46.0106 82.4214 44.7434 82.4214 43.3229C82.4214 41.1505 81.6698 39.7301 80.1666 39.0617C78.6907 38.3932 75.2743 37.1956 69.9174 35.4688C64.5606 33.742 60.6249 31.7507 58.1105 29.4947C55.6233 27.2387 54.3798 23.8826 54.3798 19.4264C54.3798 15.5272 55.3227 12.1154 57.2085 9.19098C59.1217 6.23873 61.6771 3.96883 64.8749 2.3813C68.0726 0.793767 71.5163 0 75.206 0Z" fill="url(#paint0_linear_1429_3136)"/>
<path d="M139.097 43.3229H113.351C113.761 46.2473 115.018 48.4615 117.122 49.9655C119.227 51.4695 121.769 52.2215 124.748 52.2215C126.579 52.2215 128.137 51.929 129.421 51.3442C130.706 50.7593 132.305 49.9377 134.218 48.8793C136.158 47.7931 137.566 47.25 138.441 47.25C139.261 47.25 140.053 47.5146 140.818 48.0438C141.611 48.5451 142.24 49.1996 142.704 50.0073C143.169 50.815 143.401 51.6645 143.401 52.5557C143.401 53.8369 142.814 55.1041 141.638 56.3574C140.49 57.6107 138.946 58.7387 137.006 59.7414C135.093 60.7162 132.92 61.496 130.487 62.0809C128.082 62.6936 125.8 63 123.641 63C119.241 63 115.305 61.9834 111.834 59.9503C108.363 57.8893 105.684 55.0623 103.799 51.4695C101.913 47.8488 100.97 43.7825 100.97 39.2706C100.97 36.2069 101.503 33.2268 102.569 30.3302C103.662 27.4337 105.165 24.8574 107.078 22.6015C109.019 20.3455 111.328 18.5908 114.007 17.3375C116.712 16.0564 119.596 15.4158 122.657 15.4158C125.8 15.4158 128.724 16.0842 131.43 17.4211C134.163 18.7301 136.473 20.4708 138.359 22.6432C140.244 24.8157 141.72 27.2387 142.786 29.9125C143.852 32.5584 144.385 35.1903 144.385 37.8084C144.385 41.4847 142.622 43.3229 139.097 43.3229ZM113.064 35.0928H132.291C131.963 32.2798 130.952 30.0099 129.257 28.2832C127.563 26.5564 125.363 25.693 122.657 25.693C120.061 25.693 117.901 26.5703 116.18 28.3249C114.458 30.0796 113.419 32.3355 113.064 35.0928Z" fill="url(#paint1_linear_1429_3136)"/>
<path d="M186.712 43.3229H160.966C161.376 46.2473 162.633 48.4615 164.737 49.9655C166.842 51.4695 169.384 52.2215 172.363 52.2215C174.194 52.2215 175.752 51.929 177.036 51.3442C178.321 50.7593 179.92 49.9377 181.833 48.8793C183.773 47.7931 185.181 47.25 186.056 47.25C186.876 47.25 187.668 47.5146 188.433 48.0438C189.226 48.5451 189.855 49.1996 190.319 50.0073C190.784 50.815 191.016 51.6645 191.016 52.5557C191.016 53.8369 190.429 55.1041 189.253 56.3574C188.105 57.6107 186.561 58.7387 184.621 59.7414C182.708 60.7162 180.535 61.496 178.102 62.0809C175.697 62.6936 173.415 63 171.256 63C166.856 63 162.92 61.9834 159.449 59.9503C155.978 57.8893 153.299 55.0623 151.414 51.4695C149.528 47.8488 148.585 43.7825 148.585 39.2706C148.585 36.2069 149.118 33.2268 150.184 30.3302C151.277 27.4337 152.78 24.8574 154.693 22.6015C156.634 20.3455 158.943 18.5908 161.622 17.3375C164.327 16.0564 167.211 15.4158 170.272 15.4158C173.415 15.4158 176.339 16.0842 179.045 17.4211C181.778 18.7301 184.088 20.4708 185.974 22.6432C187.859 24.8157 189.335 27.2387 190.401 29.9125C191.467 32.5584 192 35.1903 192 37.8084C192 41.4847 190.237 43.3229 186.712 43.3229ZM160.679 35.0928H179.906C179.578 32.2798 178.567 30.0099 176.872 28.2832C175.178 26.5564 172.978 25.693 170.272 25.693C167.676 25.693 165.516 26.5703 163.795 28.3249C162.073 30.0796 161.034 32.3355 160.679 35.0928Z" fill="url(#paint2_linear_1429_3136)"/>
<path d="M18.9814 57.5272L0.573951 9.8594C0.191317 8.80105 0 7.74269 0 6.68434C0 4.9297 0.642279 3.46749 1.92684 2.29773C3.23872 1.12797 4.75559 0.543091 6.47745 0.543091C8.93724 0.543091 10.8367 1.93566 12.176 4.72081L25.1719 40.315L38.2087 4.72081C39.4933 1.93566 41.3928 0.543091 43.9073 0.543091C45.6564 0.543091 47.1733 1.12797 48.4579 2.29773C49.7424 3.46749 50.3847 4.9297 50.3847 6.68434C50.3847 7.77054 50.1797 8.8289 49.7698 9.8594L31.4033 57.5272C30.7747 59.0869 29.9958 60.2984 29.0665 61.1618C28.1646 62.0252 26.8664 62.4569 25.1719 62.4569C23.4773 62.4569 22.1791 62.0391 21.2772 61.2036C20.4026 60.368 19.6373 59.1426 18.9814 57.5272Z" fill="url(#paint3_linear_1429_3136)"/>
<defs>
<linearGradient id="paint0_linear_1429_3136" x1="123.067" y1="25.5" x2="123.067" y2="45" gradientUnits="userSpaceOnUse">
<stop stop-color="#80BA27"/>
<stop offset="1" stop-color="#759D3B"/>
</linearGradient>
<linearGradient id="paint1_linear_1429_3136" x1="123.067" y1="25.5" x2="123.067" y2="45" gradientUnits="userSpaceOnUse">
<stop stop-color="#80BA27"/>
<stop offset="1" stop-color="#759D3B"/>
</linearGradient>
<linearGradient id="paint2_linear_1429_3136" x1="123.067" y1="25.5" x2="123.067" y2="45" gradientUnits="userSpaceOnUse">
<stop stop-color="#80BA27"/>
<stop offset="1" stop-color="#759D3B"/>
</linearGradient>
<linearGradient id="paint3_linear_1429_3136" x1="25.1924" y1="0.543091" x2="25.1924" y2="62.4569" gradientUnits="userSpaceOnUse">
<stop offset="0.189405" stop-color="#AAA9AA"/>
<stop offset="0.810024" stop-color="#868485"/>
</linearGradient>
</defs>
</svg>
